# xmcd
#
# Track frame offsets: 
#        150
#        26850
#        47135
#        58276
#        87718
#        119998
#        150144
#        174102
#        196028
#
# Disc length: 2998 seconds
#
# Revision: 0
# Processed by: cddbd v1.5.2PL0 Copyright (c) Steve Scherf et al.
# Submitted via: ExactAudioCopy v0.99pb5
#
DISCID=770bb409
DTITLE=Interstate Blues - Red Was The Sky
DYEAR=2010
DGENRE=Blues Rock
TTITLE0=The Eternal Axis Of One
TTITLE1=Don't Lead Me Blind
TTITLE2=Tintorera
TTITLE3=Red Was The Sky
TTITLE4=Help Me Find The Sun
TTITLE5=Innerspace Blues
TTITLE6=Just Go Away
TTITLE7=Stir It Up
TTITLE8=Where Do We Go To Die
EXTD=
EXTT0=
EXTT1=
EXTT2=
EXTT3=
EXTT4=
EXTT5=
EXTT6=
EXTT7=
EXTT8=
PLAYORDER=
